<svg width="200" height="200" viewBox="0 0 200 200" fill="none" xmlns="http://www.w3.org/2000/svg">
    <g clip-path="url(#clip0_1_2)">
        <path d="M164 2H36V130H164V2Z" fill="url(#paint0_linear_1_2)"/>
        <g filter="url(#filter0_i_1_2)">
            <path d="M69.2549 96.4417C65.7555 92.7442 62.9607 88.487 60.8708 83.6707C58.7808 78.8543 57.7359 73.9644 57.7359 69.002C57.7359 63.5529 58.7565 58.2257 60.7979 53.0199C62.8393 47.8142 65.9984 43.1193 70.2756 38.9352C74.0667 35.1404 78.9513 32.2212 84.9296 30.1779C90.9078 28.1345 97.2021 26.6506 103.812 25.7262C110.422 24.8018 117.008 24.3396 123.57 24.3396C130.131 24.3396 136.036 24.437 141.285 24.6316C141.577 29.9832 141.698 35.9917 141.65 42.6571C141.601 49.3224 141.14 55.939 140.265 62.5072C139.39 69.075 137.907 75.3023 135.818 81.1891C133.727 87.0765 130.787 91.917 126.996 95.7117C122.816 99.9931 118.223 103.156 113.217 105.199C108.211 107.243 103.083 108.264 97.8337 108.264C92.5847 108.264 87.4327 107.243 82.3779 105.199C77.3231 103.156 72.9488 100.236 69.2549 96.4417ZM76.6913 98.4848C79.7047 100.626 83.107 102.231 86.898 103.302C90.6891 104.372 94.383 104.956 97.9798 105.053C102.646 105.053 107.287 104.104 111.905 102.207C116.522 100.309 120.824 97.366 124.809 93.3769C126.753 91.3331 128.6 88.56 130.35 85.0569C132.1 81.5544 133.606 77.1511 134.87 71.8482C136.133 66.5452 137.081 60.2691 137.713 53.0199C138.345 45.7708 138.515 37.3297 138.224 27.6966C132.197 27.502 125.903 27.5264 119.341 27.7696C112.78 28.0129 106.558 28.621 100.677 29.594C94.7961 30.5671 89.4254 31.978 84.565 33.8267C79.7047 35.6755 75.865 38.0595 73.046 40.9786C68.7689 45.1626 65.6825 49.6873 63.787 54.5525C61.8915 59.4177 60.9437 63.9424 60.9437 68.1265C60.9437 72.9917 61.9644 77.9052 64.0057 82.8676C66.047 87.8306 68.9633 91.8687 72.7544 94.9823C74.8929 87.6845 78.3681 80.9458 83.1799 74.7674C87.9916 68.5884 94.869 62.6774 103.812 57.0337C96.9105 63.1641 91.2481 69.4645 86.8251 75.9351C82.4022 82.4057 79.0243 89.9221 76.6913 98.4848Z"
                  fill="white" fill-opacity="0.8"/>
        </g>
    </g>
    <defs>
        <filter id="filter0_i_1_2" x="57.7359" y="24.3396" width="83.9246" height="87.9245" filterUnits="userSpaceOnUse"
                color-interpolation-filters="sRGB">
            <feFlood flood-opacity="0" result="BackgroundImageFix"/>
            <feBlend mode="normal" in="SourceGraphic" in2="BackgroundImageFix" result="shape"/>
            <feColorMatrix in="SourceAlpha" type="matrix" values="0 0 0 0 0 0 0 0 0 0 0 0 0 0 0 0 0 0 127 0"
                           result="hardAlpha"/>
            <feOffset dy="4"/>
            <feGaussianBlur stdDeviation="2"/>
            <feComposite in2="hardAlpha" operator="arithmetic" k2="-1" k3="1"/>
            <feColorMatrix type="matrix" values="0 0 0 0 0 0 0 0 0 0 0 0 0 0 0 0 0 0 0.25 0"/>
            <feBlend mode="normal" in2="shape" result="effect1_innerShadow_1_2"/>
        </filter>
        <linearGradient id="paint0_linear_1_2" x1="100" y1="2" x2="100" y2="130" gradientUnits="userSpaceOnUse">
            <stop stop-color="#40D986"/>
            <stop offset="1" stop-color="#0079E9"/>
        </linearGradient>
        <clipPath id="clip0_1_2">
            <rect x="36" y="2" width="128" height="128" rx="64" fill="white"/>
        </clipPath>
    </defs>
</svg>